<svg width="288" height="193" viewBox="0 0 288 193" fill="none" xmlns="http://www.w3.org/2000/svg">
<path d="M1.6 7.29601C1.6 7.93601 1.85598 8.57601 2.62399 8.83201C5.11999 9.664 5.88799 10.112 5.88799 11.776V46.3999C5.88799 52.4799 4.09599 54.2719 0 56.3839L1.408 60.4159C13.888 56.9599 20.608 54.0799 20.608 44.5439V9.92L25.152 8.32V4.67202C25.152 4.09602 24.96 3.96802 24.256 3.96802H1.6V7.29601Z" fill="black"/>
<path d="M61.7599 42.8799L59.5199 39.5519C57.3439 41.0879 54.3359 41.8559 51.7759 41.8559C46.5919 41.8559 43.5839 38.8479 42.4959 33.0879C48.7039 33.0879 57.2159 32.4479 61.8239 31.6159C61.9519 30.4639 61.9519 29.8879 61.9519 29.0559C61.9519 19.3919 56.1279 14.08 46.5919 14.08C36.2239 14.08 28.5439 21.7599 28.5439 32.0639C28.5439 42.8799 35.4559 49.5359 45.7599 49.5359C52.0319 49.5359 58.4959 47.6159 61.7599 42.8799ZM46.2719 19.3279C48.5759 19.3279 50.1759 21.8239 49.5359 27.3919L42.0479 28.3519C42.0479 22.0159 43.6479 19.3279 46.2719 19.3279Z" fill="black"/>
<path d="M86.7199 48.4479V44.7359L82.3039 43.2639V21.184C85.1199 21.312 87.6799 21.504 89.5359 21.696V14.848H82.3039V9.59999C82.3039 6.07999 83.1359 5.31199 84.0959 5.31199C84.4159 5.31199 84.7999 5.37598 85.0559 5.56798C85.6319 7.61597 86.4639 9.91998 87.3599 11.584C87.5519 11.968 87.8719 12.16 88.3199 12.16H92.6079L93.6319 1.40799C91.5199 0.575996 88.0639 0.127997 85.5679 0H84.4159C75.0079 0 70.9119 3.77598 69.2479 8.76797C68.6719 10.624 68.4159 12.736 68.3519 14.848H65.0239V20.7359H68.3519V41.2799C68.3519 42.6239 67.9679 43.2639 66.3679 44.0319C65.7279 44.3519 65.5359 44.6079 65.5359 45.3119V48.7679H86.0799C86.5919 48.7679 86.7199 48.7039 86.7199 48.4479Z" fill="black"/>
<path d="M114.112 48.4479V44.7359L109.696 43.2639V21.184C112.512 21.312 115.072 21.504 116.928 21.696V14.848H109.696V9.59999C109.696 6.07999 110.528 5.31199 111.488 5.31199C111.808 5.31199 112.192 5.37598 112.448 5.56798C113.024 7.61597 113.856 9.91998 114.752 11.584C114.944 11.968 115.264 12.16 115.712 12.16H120L121.024 1.40799C118.912 0.576007 115.456 0.127997 112.96 0H111.808C102.4 0 98.3038 3.77599 96.6398 8.76798C96.0638 10.624 95.8078 12.736 95.7438 14.848H92.4158V20.736H95.7438V41.2799C95.7438 42.6239 95.3598 43.2639 93.7598 44.0319C93.1198 44.3519 92.9278 44.6079 92.9278 45.3119V48.7679H113.472C113.984 48.7679 114.112 48.7039 114.112 48.4479Z" fill="black"/>
<path d="M42.7518 117.388L41.6638 103.372H37.5038C36.7358 103.372 36.2878 103.564 35.9038 104.332C35.1358 105.932 34.1118 109.58 33.2798 113.164C31.9358 114.316 29.6958 114.7 27.7758 114.7C21.5679 114.7 17.0879 107.468 17.0879 95.5639C17.0879 84.7479 21.3118 79.5639 26.4958 79.5639C28.9278 79.5639 30.9758 79.9479 32.5118 81.0999C33.2798 84.5559 34.4958 87.6919 35.2638 89.2919C35.6478 90.0599 36.0958 90.2519 36.8638 90.2519H41.0238L42.1118 76.6839C38.3998 75.2119 31.9998 73.8679 26.9438 73.8679C8.83188 73.8679 1.98389 84.0439 1.98389 96.9079C1.98389 110.732 9.66387 120.204 27.1998 120.204C32.7038 120.204 39.0398 118.924 42.7518 117.388Z" fill="black"/>
<path d="M74.3678 120.204C78.0798 120.204 82.3678 118.348 84.2238 115.212L82.4318 111.756C82.0478 112.076 81.5998 112.204 81.0238 112.204C80.1278 112.204 79.4878 111.564 79.4878 110.476V97.7398C79.4878 89.2918 76.0318 84.7478 65.0878 84.7478C60.2238 84.7478 53.7598 85.9638 49.7278 88.0118L50.8158 97.2278H55.4878C56.3198 97.2278 56.7678 97.0998 57.1518 96.2678C57.9838 94.4758 58.6238 92.2358 59.0718 90.0598C59.9038 89.8678 60.6718 89.8038 61.5678 89.8038C63.8718 89.8038 65.5358 90.8918 65.5358 95.8838V100.236H64.7038C54.8478 100.364 47.4238 102.54 47.4238 110.54C47.4238 116.62 51.5198 120.268 56.7678 120.268C60.3518 120.268 64.1918 118.796 66.2398 114.764C67.5198 118.86 70.2718 120.204 74.3678 120.204ZM59.6478 108.748C59.6478 106.508 61.1198 104.844 65.0238 104.78H65.5358V112.14C64.8958 112.46 64.1918 112.588 63.5518 112.588C60.9918 112.588 59.6478 110.924 59.6478 108.748Z" fill="black"/>
<path d="M106.112 119.116V115.34L103.104 113.932V78.4119L103.296 70.6678L86.3359 73.6119V77.0679C86.3359 77.7719 86.5919 78.0278 87.1679 78.2198C88.9599 78.7958 89.1519 79.1158 89.1519 80.3318V111.884C89.1519 113.228 88.7679 113.932 87.1679 114.7C86.5279 115.02 86.3359 115.276 86.3359 115.98V119.436H105.472C105.984 119.436 106.112 119.372 106.112 119.116Z" fill="black"/>
<path d="M149.248 117.388V113.932C149.248 113.228 148.928 112.972 148.352 112.78C146.624 112.204 146.496 111.884 146.496 110.604V78.4119L146.688 70.6678L129.728 73.6119V77.0679C129.728 77.7719 129.984 78.0278 130.56 78.2198C132.288 78.7958 132.48 79.1158 132.48 80.3318V85.0678C131.072 84.8758 129.664 84.7478 128.256 84.7478C116.416 84.7478 109.504 92.7478 109.504 104.524C109.504 113.484 114.176 120.204 121.728 120.204C126.4 120.204 130.304 117.132 132.48 112.332L132.288 120.204L149.248 117.388ZM123.328 100.94C123.328 92.4918 125.504 89.9958 128.576 89.9958C130.304 89.9958 131.648 91.2118 132.48 93.2598V109.132C131.648 110.412 130.24 111.18 128.768 111.18C125.568 111.18 123.328 109.388 123.328 100.94Z" fill="black"/>
<path d="M193.344 88.9718C193.344 89.5478 193.408 89.8678 194.176 90.2518C196.416 91.3398 196.992 91.6598 196.8 92.6198L193.856 107.084L186.24 85.5158H178.624L172.352 107.34L167.936 91.0198L171.136 89.6118V85.8358C171.136 85.5798 171.008 85.5158 170.496 85.5158H151.168V88.9718C151.168 89.5478 151.36 89.9957 152 90.3797C153.536 91.3397 154.048 91.8517 154.496 93.3237L162.496 119.436H173.44L178.752 103.692L184.448 119.436H195.392L203.392 91.4677L207.04 89.6117V85.8358C207.04 85.5798 206.912 85.5157 206.4 85.5157H193.344V88.9718Z" fill="black"/>
<path d="M241.536 113.548L239.296 110.22C237.12 111.756 234.112 112.524 231.552 112.524C226.368 112.524 223.36 109.516 222.272 103.756C228.48 103.756 236.992 103.116 241.6 102.284C241.728 101.132 241.728 100.556 241.728 99.7238C241.728 90.0598 235.904 84.7478 226.368 84.7478C216 84.7478 208.32 92.4278 208.32 102.732C208.32 113.548 215.232 120.204 225.536 120.204C231.808 120.204 238.272 118.284 241.536 113.548ZM226.048 89.9958C228.352 89.9958 229.952 92.4918 229.312 98.0598L221.824 99.0198C221.824 92.6838 223.424 89.9958 226.048 89.9958Z" fill="black"/>
<path d="M265.151 119.116V115.34L262.143 113.932V78.4119L262.335 70.6678L245.375 73.6119V77.0679C245.375 77.7719 245.631 78.0278 246.207 78.2198C247.999 78.7958 248.191 79.1158 248.191 80.3318V111.884C248.191 113.228 247.807 113.932 246.207 114.7C245.567 115.02 245.375 115.276 245.375 115.98V119.436H264.511C265.023 119.436 265.151 119.372 265.151 119.116Z" fill="black"/>
<path d="M287.68 119.116V115.34L284.672 113.932V78.4119L284.864 70.6678L267.904 73.6119V77.0679C267.904 77.7719 268.16 78.0278 268.736 78.2198C270.528 78.7958 270.72 79.1158 270.72 80.3318V111.884C270.72 113.228 270.336 113.932 268.736 114.7C268.096 115.02 267.904 115.276 267.904 115.98V119.436H287.04C287.552 119.436 287.68 119.372 287.68 119.116Z" fill="black"/>
<path d="M11.0719 154.328C15.1039 154.328 18.4319 150.872 18.4319 146.712C18.4319 142.936 15.1039 139.48 11.0719 139.48C6.91191 139.48 3.39192 142.936 3.39192 146.712C3.39192 150.872 6.91191 154.328 11.0719 154.328ZM21.2479 189.784V186.072L18.2399 184.6V163.096L18.4319 155.416L1.47192 158.36V161.688C1.47192 162.392 1.72791 162.712 2.30393 162.904C4.09592 163.48 4.28792 163.8 4.28792 165.016V182.616C4.28792 183.96 3.90392 184.6 2.30393 185.368C1.66393 185.688 1.47192 185.944 1.47192 186.648V190.104H20.6079C21.1199 190.104 21.2479 190.04 21.2479 189.784Z" fill="black"/>
<path d="M53.8878 178.712C53.8878 171.16 48.5758 168.92 43.9038 167.192C40.4478 165.912 37.1198 165.144 37.1198 162.52C37.1198 160.792 38.3358 160.024 40.2558 160.024C41.5998 160.024 43.3918 160.472 44.3518 161.176C44.7998 163.032 45.2478 164.248 46.0158 165.912C46.3998 166.68 46.7838 166.872 47.5518 166.872H51.5198L52.4158 157.72C48.9598 155.992 44.4798 155.416 41.4718 155.416C30.8478 155.416 25.5358 160.152 25.5358 167.768C25.5358 175.64 31.6158 177.56 36.4798 179.352C39.6158 180.504 42.3678 181.272 42.3678 183.704C42.3678 185.624 39.9358 186.392 37.6318 186.392C35.8398 186.392 34.1118 185.88 32.8318 184.92C32.4478 182.936 32.0638 181.528 31.1678 179.8C30.7838 179.032 30.3358 178.84 29.5678 178.84H25.6638L24.7678 188.696C28.2238 190.36 32.7678 190.872 36.6718 190.872C47.8078 190.872 53.8878 186.264 53.8878 178.712Z" fill="black"/>
<path d="M78.1573 167.512C79.3947 167.512 80.824 166.893 81.4427 165.848L80.8453 164.696C80.7173 164.803 80.568 164.845 80.376 164.845C80.0774 164.845 79.864 164.632 79.864 164.269V160.024C79.864 157.208 78.712 155.693 75.064 155.693C73.4427 155.693 71.288 156.099 69.944 156.781L70.3067 159.853H71.864C72.1414 159.853 72.2907 159.811 72.4187 159.533C72.696 158.936 72.9094 158.189 73.0587 157.464C73.336 157.4 73.592 157.379 73.8907 157.379C74.6587 157.379 75.2134 157.741 75.2134 159.405V160.856H74.936C71.6507 160.899 69.176 161.624 69.176 164.291C69.176 166.317 70.5414 167.533 72.2907 167.533C73.4854 167.533 74.7654 167.043 75.448 165.699C75.8747 167.064 76.792 167.512 78.1573 167.512ZM73.2507 163.693C73.2507 162.947 73.7413 162.392 75.0427 162.371H75.2134V164.824C75 164.931 74.7653 164.973 74.552 164.973C73.6987 164.973 73.2507 164.419 73.2507 163.693Z" fill="black"/>
<path d="M100.579 157.101C100.579 157.293 100.6 157.4 100.856 157.528C101.603 157.891 101.795 157.997 101.731 158.317L100.749 163.139L98.2107 155.949H95.672L93.5813 163.224L92.1093 157.784L93.176 157.315V156.056C93.176 155.971 93.1333 155.949 92.9627 155.949H86.52V157.101C86.52 157.293 86.584 157.443 86.7974 157.571C87.3094 157.891 87.48 158.061 87.6294 158.552L90.296 167.256H93.944L95.7147 162.008L97.6134 167.256H101.261L103.928 157.933L105.144 157.315V156.056C105.144 155.971 105.101 155.949 104.931 155.949H100.579L100.579 157.101Z" fill="black"/>
<path d="M116.643 165.293L115.896 164.184C115.171 164.696 114.168 164.952 113.315 164.952C111.587 164.952 110.584 163.949 110.221 162.029C112.291 162.029 115.128 161.816 116.664 161.539C116.707 161.155 116.707 160.963 116.707 160.685C116.707 157.464 114.765 155.693 111.587 155.693C108.131 155.693 105.571 158.253 105.571 161.688C105.571 165.293 107.875 167.512 111.309 167.512C113.4 167.512 115.555 166.872 116.643 165.293ZM111.48 157.443C112.248 157.443 112.781 158.275 112.568 160.131L110.072 160.451C110.072 158.339 110.605 157.443 111.48 157.443Z" fill="black"/>
<path d="M124.728 167.512C128.653 167.512 130.936 164.803 130.936 160.92C130.936 157.912 129.379 155.693 126.883 155.693C125.347 155.693 124.024 156.675 123.299 158.296V153.581L123.363 151L117.731 151.981V153.112C117.731 153.347 117.816 153.432 118.008 153.496C118.584 153.688 118.648 153.816 118.648 154.221V163.587C118.648 164.739 118.52 165.507 118.115 166.552L119.309 167.555L120.781 166.573C122.019 167.213 123.405 167.512 124.728 167.512ZM124.579 158.659C125.645 158.659 126.349 159.512 126.349 162.072C126.349 164.888 125.624 165.763 124.6 165.763C124.024 165.763 123.576 165.357 123.299 164.696V159.341C123.576 158.915 124.045 158.659 124.579 158.659Z" fill="black"/>
<path d="M150.371 166.573V165.421C150.371 165.187 150.264 165.101 150.072 165.037C149.496 164.845 149.453 164.739 149.453 164.312V153.581L149.517 151L143.864 151.981V153.133C143.864 153.368 143.949 153.453 144.141 153.517C144.717 153.709 144.781 153.816 144.781 154.221V155.8C144.312 155.736 143.843 155.693 143.373 155.693C139.427 155.693 137.123 158.36 137.123 162.285C137.123 165.272 138.68 167.512 141.197 167.512C142.755 167.512 144.056 166.488 144.781 164.888L144.717 167.512L150.371 166.573ZM141.731 161.091C141.731 158.275 142.456 157.443 143.48 157.443C144.056 157.443 144.504 157.848 144.781 158.531V163.821C144.504 164.248 144.035 164.504 143.544 164.504C142.477 164.504 141.731 163.907 141.731 161.091Z" fill="black"/>
<path d="M162.616 165.293L161.869 164.184C161.144 164.696 160.141 164.952 159.288 164.952C157.56 164.952 156.557 163.949 156.195 162.029C158.264 162.029 161.101 161.816 162.637 161.539C162.68 161.155 162.68 160.963 162.68 160.685C162.68 157.464 160.739 155.693 157.56 155.693C154.104 155.693 151.544 158.253 151.544 161.688C151.544 165.293 153.848 167.512 157.283 167.512C159.373 167.512 161.528 166.872 162.616 165.293ZM157.453 157.443C158.221 157.443 158.755 158.275 158.541 160.131L156.045 160.451C156.045 158.339 156.579 157.443 157.453 157.443Z" fill="black"/>
<path d="M171.661 157.123C171.661 157.315 171.704 157.421 171.939 157.528C172.621 157.848 172.856 157.997 172.771 158.317L171.213 163.736L168.888 157.763L169.912 157.336V156.056C169.912 155.971 169.869 155.949 169.699 155.949H163.256V157.123C163.256 157.315 163.341 157.443 163.533 157.571C164.003 157.869 164.237 158.061 164.408 158.488L167.907 167.256H171.555L174.989 157.997L176.248 157.336V156.056C176.248 155.971 176.205 155.949 176.035 155.949H171.661L171.661 157.123Z" fill="black"/>
<path d="M187.747 165.293L187 164.184C186.275 164.696 185.272 164.952 184.419 164.952C182.691 164.952 181.688 163.949 181.325 162.029C183.395 162.029 186.232 161.816 187.768 161.539C187.811 161.155 187.811 160.963 187.811 160.685C187.811 157.464 185.869 155.693 182.691 155.693C179.235 155.693 176.675 158.253 176.675 161.688C176.675 165.293 178.979 167.512 182.413 167.512C184.504 167.512 186.659 166.872 187.747 165.293ZM182.584 157.443C183.352 157.443 183.885 158.275 183.672 160.131L181.176 160.451C181.176 158.339 181.709 157.443 182.584 157.443Z" fill="black"/>
<path d="M195.619 167.149V165.891L194.616 165.421V153.581L194.68 151L189.027 151.981V153.133C189.027 153.368 189.112 153.453 189.304 153.517C189.901 153.709 189.965 153.816 189.965 154.221V164.739C189.965 165.187 189.837 165.421 189.304 165.677C189.091 165.784 189.027 165.869 189.027 166.104V167.256H195.405C195.576 167.256 195.619 167.235 195.619 167.149Z" fill="black"/>
<path d="M209.187 161.645C209.187 157.933 206.861 155.693 203.128 155.693C199.288 155.693 196.749 158.104 196.749 161.624C196.749 165.315 199.053 167.512 202.765 167.512C206.627 167.512 209.187 165.101 209.187 161.645ZM204.451 162.136C204.451 164.824 204.003 165.805 203.043 165.805C202.168 165.805 201.464 164.973 201.464 161.069C201.464 158.381 201.933 157.421 202.872 157.421C203.747 157.421 204.451 158.253 204.451 162.136Z" fill="black"/>
<path d="M217.4 172.483V171.203L215.949 170.712V167.405C216.419 167.469 216.888 167.512 217.357 167.512C221.283 167.512 223.587 164.803 223.587 160.92C223.587 157.912 222.051 155.693 219.533 155.693C218.019 155.693 216.696 156.653 215.949 158.232L216.013 155.651L210.36 156.632V157.741C210.36 157.976 210.445 158.083 210.637 158.147C211.192 158.339 211.277 158.445 211.277 158.851V170.051C211.277 170.499 211.171 170.712 210.637 170.968C210.424 171.075 210.36 171.16 210.36 171.395V172.589H217.187C217.357 172.589 217.4 172.568 217.4 172.483ZM217.251 158.659C218.317 158.659 219 159.405 219 162.072C219 164.888 218.275 165.763 217.251 165.763C216.675 165.763 216.227 165.357 215.949 164.696V159.32C216.248 158.893 216.76 158.659 217.251 158.659Z" fill="black"/>
<path d="M236.152 165.293L235.405 164.184C234.68 164.696 233.677 164.952 232.824 164.952C231.096 164.952 230.093 163.949 229.731 162.029C231.8 162.029 234.637 161.816 236.173 161.539C236.216 161.155 236.216 160.963 236.216 160.685C236.216 157.464 234.275 155.693 231.096 155.693C227.64 155.693 225.08 158.253 225.08 161.688C225.08 165.293 227.384 167.512 230.819 167.512C232.909 167.512 235.064 166.872 236.152 165.293ZM230.989 157.443C231.757 157.443 232.291 158.275 232.077 160.131L229.581 160.451C229.581 158.339 230.114 157.443 230.989 157.443Z" fill="black"/>
<path d="M244.493 167.149V165.891L243.021 165.421V160.451C243.576 160.131 244.195 159.96 244.941 159.96C245.133 159.96 245.389 159.96 245.645 159.981C245.901 160.002 246.157 160.045 246.328 160.088C247.011 158.893 247.245 157.016 246.84 155.693C244.792 155.693 243.747 156.717 243.021 159.277V158.21L243.085 155.693L237.432 156.632V157.741C237.432 157.976 237.517 158.082 237.709 158.146C238.307 158.338 238.371 158.445 238.371 158.85V164.738C238.371 165.186 238.243 165.421 237.709 165.677C237.496 165.784 237.432 165.869 237.432 166.104V167.256H244.28C244.451 167.256 244.493 167.235 244.493 167.149Z" fill="black"/>
<path d="M247.48 170.179L248.717 170.84C251.106 168.685 252.301 165.784 251.896 163.032C250.317 163.032 248.888 163.139 247.586 163.48C248.162 165.827 248.184 168.408 247.48 170.179Z" fill="black"/>
<path d="M82.9573 179.145C82.9573 179.337 82.9785 179.443 83.2347 179.571C83.9814 179.934 84.1734 180.041 84.1094 180.361L83.128 185.182L80.5894 177.993H78.0507L75.96 185.267L74.488 179.827L75.5547 179.358V178.099C75.5547 178.014 75.512 177.993 75.3413 177.993H68.8987V179.145C68.8987 179.337 68.9627 179.486 69.176 179.614C69.688 179.934 69.8587 180.105 70.008 180.595L72.6747 189.299H76.3227L78.0933 184.051L79.992 189.299H83.64L86.3067 179.977L87.5227 179.358V178.099C87.5227 178.014 87.48 177.993 87.3093 177.993H82.9573L82.9573 179.145Z" fill="black"/>
<path d="M95.3306 189.193V187.934L93.8586 187.465V182.494C94.4133 182.174 95.032 182.003 95.7786 182.003C95.9706 182.003 96.2266 182.003 96.4826 182.026C96.7386 182.049 96.9946 182.09 97.1653 182.132C97.848 180.938 98.0826 179.06 97.6773 177.738C95.6293 177.738 94.584 178.762 93.8586 181.322V180.255L93.9226 177.738L88.2693 178.676V179.786C88.2693 180.02 88.3546 180.127 88.5466 180.191C89.144 180.383 89.208 180.49 89.208 180.895V186.783C89.208 187.231 89.0799 187.466 88.5466 187.722C88.3333 187.828 88.2693 187.914 88.2693 188.148V189.3H95.1173C95.288 189.3 95.3306 189.276 95.3306 189.193Z" fill="black"/>
<path d="M102.072 177.374C103.416 177.374 104.525 176.222 104.525 174.835C104.525 173.577 103.416 172.425 102.072 172.425C100.685 172.425 99.5121 173.577 99.5121 174.835C99.5121 176.222 100.685 177.374 102.072 177.374ZM105.464 189.193V187.955L104.461 187.465V180.297L104.525 177.737L98.8721 178.718V179.827C98.8721 180.062 98.9574 180.169 99.1494 180.233C99.7468 180.425 99.8108 180.531 99.8108 180.937V186.803C99.8108 187.251 99.6827 187.465 99.1494 187.721C98.9361 187.827 98.8721 187.913 98.8721 188.147V189.299H105.251C105.421 189.299 105.464 189.276 105.464 189.193Z" fill="black"/>
<path d="M106.147 179.955H107.256V185.886C107.256 188.297 108.557 189.555 110.627 189.555C112.333 189.555 113.827 188.979 114.765 187.849L113.997 186.526C113.677 186.761 113.293 186.91 112.931 186.91C112.163 186.91 111.928 186.377 111.928 185.075V180.105C112.867 180.147 113.741 180.211 114.36 180.275V177.992H111.928V174.878H110.499L107.469 177.993H106.147V179.955Z" fill="black"/>
<path d="M126.605 187.337L125.859 186.227C125.133 186.739 124.131 186.995 123.277 186.995C121.549 186.995 120.547 185.993 120.184 184.073C122.253 184.073 125.091 183.859 126.627 183.582C126.669 183.198 126.669 183.006 126.669 182.729C126.669 179.507 124.728 177.737 121.549 177.737C118.093 177.737 115.533 180.297 115.533 183.731C115.533 187.337 117.837 189.555 121.272 189.555C123.363 189.555 125.517 188.915 126.605 187.337ZM121.443 179.486C122.211 179.486 122.744 180.318 122.531 182.174L120.035 182.494C120.035 180.382 120.568 179.486 121.443 179.486Z" fill="black"/>
<path d="M134.947 189.193V187.934L133.475 187.465V182.494C134.029 182.174 134.648 182.003 135.395 182.003C135.587 182.003 135.843 182.003 136.099 182.026C136.355 182.049 136.611 182.09 136.781 182.132C137.464 180.938 137.699 179.06 137.293 177.738C135.245 177.738 134.2 178.762 133.475 181.322V180.255L133.539 177.738L127.885 178.676V179.786C127.885 180.02 127.971 180.127 128.163 180.191C128.76 180.383 128.824 180.49 128.824 180.895V186.783C128.824 187.231 128.696 187.466 128.163 187.722C127.949 187.828 127.885 187.914 127.885 188.148V189.3H134.733C134.904 189.3 134.947 189.276 134.947 189.193Z" fill="black"/>
<path d="M137.933 192.222L139.171 192.883C141.56 190.729 142.755 187.827 142.349 185.075C140.771 185.075 139.341 185.182 138.04 185.523C138.616 187.87 138.637 190.451 137.933 192.222Z" fill="black"/>
<path d="M157.667 189.555C158.904 189.555 160.333 188.937 160.952 187.891L160.355 186.739C160.227 186.846 160.077 186.889 159.885 186.889C159.587 186.889 159.373 186.675 159.373 186.313V182.067C159.373 179.251 158.221 177.737 154.573 177.737C152.952 177.737 150.797 178.142 149.453 178.825L149.816 181.897H151.373C151.651 181.897 151.8 181.854 151.928 181.576C152.205 180.979 152.419 180.232 152.568 179.507C152.845 179.443 153.101 179.422 153.4 179.422C154.168 179.422 154.723 179.784 154.723 181.448V182.899H154.445C151.16 182.942 148.685 183.667 148.685 186.334C148.685 188.36 150.051 189.576 151.8 189.576C152.995 189.576 154.275 189.086 154.957 187.742C155.384 189.107 156.301 189.555 157.667 189.555ZM152.76 185.737C152.76 184.99 153.251 184.435 154.552 184.414H154.723V186.867C154.509 186.974 154.275 187.017 154.061 187.017C153.208 187.017 152.76 186.462 152.76 185.737Z" fill="black"/>
<path d="M168.184 189.193V187.934L167.245 187.465V181.449C167.672 181.15 168.163 180.979 168.653 180.979C169.507 180.979 170.04 181.342 170.04 182.835V186.782C170.04 187.23 169.955 187.486 169.421 187.721C169.208 187.827 169.144 187.913 169.144 188.147V189.299H175.48C175.651 189.299 175.693 189.277 175.693 189.193V187.934L174.691 187.465V181.342C174.691 179.102 173.496 177.737 171.405 177.737C169.763 177.737 168.483 178.569 167.267 180.254L167.309 177.737L161.656 178.718V179.827C161.656 180.083 161.741 180.19 161.933 180.254C162.509 180.425 162.595 180.553 162.595 180.958V186.782C162.595 187.23 162.467 187.465 161.933 187.721C161.72 187.827 161.656 187.913 161.656 188.147V189.299H167.971C168.141 189.299 168.184 189.276 168.184 189.193Z" fill="black"/>
<path d="M190.008 188.617V187.465C190.008 187.23 189.901 187.144 189.709 187.081C189.133 186.889 189.091 186.782 189.091 186.355V175.625L189.155 173.043L183.501 174.025V175.177C183.501 175.411 183.587 175.497 183.779 175.561C184.355 175.753 184.419 175.859 184.419 176.265V177.843C183.949 177.779 183.48 177.737 183.011 177.737C179.064 177.737 176.76 180.403 176.76 184.329C176.76 187.315 178.317 189.555 180.835 189.555C182.392 189.555 183.693 188.531 184.419 186.931L184.355 189.555L190.008 188.617ZM181.368 183.134C181.368 180.318 182.093 179.486 183.117 179.486C183.693 179.486 184.141 179.891 184.419 180.574V185.865C184.141 186.291 183.672 186.547 183.181 186.547C182.115 186.547 181.368 185.95 181.368 183.134Z" fill="black"/>
<path d="M205.624 185.502C205.624 182.985 203.853 182.238 202.296 181.662C201.144 181.235 200.035 180.979 200.035 180.105C200.035 179.529 200.44 179.273 201.08 179.273C201.528 179.273 202.125 179.422 202.445 179.657C202.595 180.275 202.744 180.681 203 181.235C203.128 181.491 203.256 181.555 203.512 181.555H204.835L205.133 178.505C203.981 177.929 202.488 177.737 201.485 177.737C197.944 177.737 196.173 179.315 196.173 181.854C196.173 184.478 198.2 185.118 199.821 185.715C200.867 186.099 201.784 186.355 201.784 187.166C201.784 187.806 200.973 188.062 200.205 188.062C199.608 188.062 199.032 187.891 198.605 187.571C198.477 186.91 198.349 186.441 198.051 185.865C197.923 185.609 197.773 185.545 197.517 185.545H196.216L195.917 188.83C197.069 189.385 198.584 189.555 199.885 189.555C203.597 189.555 205.624 188.019 205.624 185.502Z" fill="black"/>
<path d="M206.413 179.955H207.522V185.886C207.522 188.297 208.824 189.555 210.893 189.555C212.6 189.555 214.093 188.979 215.032 187.849L214.264 186.526C213.944 186.761 213.56 186.91 213.197 186.91C212.429 186.91 212.194 186.377 212.194 185.075V180.105C213.133 180.147 214.008 180.211 214.626 180.275V177.992H212.194V174.878H210.765L207.736 177.992H206.413V179.955Z" fill="black"/>
<path d="M222.84 178.099V179.358L223.864 179.955V185.822C223.437 186.12 222.989 186.291 222.605 186.291C221.88 186.291 221.368 185.928 221.368 184.456V177.992H215.885C215.715 177.992 215.672 178.015 215.672 178.099V179.358L216.696 179.955V185.907C216.696 188.211 217.891 189.555 219.917 189.555C221.432 189.555 222.605 188.702 223.843 187.038L223.779 189.555L229.432 188.616V187.486C229.432 187.251 229.347 187.144 229.155 187.08C228.557 186.867 228.515 186.782 228.515 186.355V177.992H223.053C222.883 177.992 222.84 178.015 222.84 178.099Z" fill="black"/>
<path d="M243.96 188.617V187.465C243.96 187.23 243.853 187.144 243.661 187.081C243.085 186.889 243.043 186.782 243.043 186.355V175.625L243.107 173.043L237.453 174.025V175.177C237.453 175.411 237.539 175.497 237.731 175.561C238.307 175.753 238.371 175.859 238.371 176.265V177.843C237.901 177.779 237.432 177.737 236.963 177.737C233.016 177.737 230.712 180.403 230.712 184.329C230.712 187.315 232.269 189.555 234.787 189.555C236.344 189.555 237.645 188.531 238.371 186.931L238.307 189.555L243.96 188.617ZM235.32 183.134C235.32 180.318 236.045 179.486 237.069 179.486C237.645 179.486 238.093 179.891 238.371 180.574V185.865C238.093 186.291 237.624 186.547 237.133 186.547C236.067 186.547 235.32 185.95 235.32 183.134Z" fill="black"/>
<path d="M256.205 187.337L255.459 186.227C254.733 186.739 253.731 186.995 252.877 186.995C251.149 186.995 250.147 185.993 249.784 184.073C251.853 184.073 254.691 183.859 256.227 183.582C256.269 183.198 256.269 183.006 256.269 182.729C256.269 179.507 254.328 177.737 251.149 177.737C247.693 177.737 245.133 180.297 245.133 183.731C245.133 187.337 247.437 189.555 250.872 189.555C252.963 189.555 255.117 188.915 256.205 187.337ZM251.043 179.486C251.811 179.486 252.344 180.318 252.131 182.174L249.635 182.494C249.635 180.382 250.168 179.486 251.043 179.486Z" fill="black"/>
<path d="M264.013 189.193V187.934L263.074 187.465V181.449C263.501 181.15 263.992 180.979 264.482 180.979C265.336 180.979 265.869 181.342 265.869 182.835V186.782C265.869 187.23 265.784 187.486 265.25 187.721C265.037 187.827 264.973 187.913 264.973 188.147V189.299H271.309C271.48 189.299 271.522 189.277 271.522 189.193V187.934L270.52 187.465V181.342C270.52 179.102 269.325 177.737 267.234 177.737C265.592 177.737 264.312 178.569 263.096 180.254L263.138 177.737L257.485 178.718V179.827C257.485 180.083 257.57 180.19 257.762 180.254C258.338 180.425 258.424 180.553 258.424 180.958V186.782C258.424 187.23 258.296 187.465 257.762 187.721C257.549 187.827 257.485 187.913 257.485 188.147V189.299H263.8C263.97 189.299 264.013 189.276 264.013 189.193Z" fill="black"/>
<path d="M272.141 179.955H273.25V185.886C273.25 188.297 274.552 189.555 276.621 189.555C278.328 189.555 279.821 188.979 280.76 187.849L279.992 186.526C279.672 186.761 279.288 186.91 278.925 186.91C278.157 186.91 277.922 186.377 277.922 185.075V180.105C278.861 180.147 279.736 180.211 280.354 180.275V177.992H277.922V174.878H276.493L273.464 177.992H272.141V179.955Z" fill="black"/>
<path d="M284.323 189.555C285.773 189.555 286.861 188.467 286.861 187.081C286.861 185.694 285.773 184.606 284.323 184.606C282.829 184.606 281.741 185.694 281.741 187.081C281.741 188.467 282.829 189.555 284.323 189.555Z" fill="black"/>
</svg>
