<svg width="1200" height="630" viewBox="0 0 1200 630" fill="none" xmlns="http://www.w3.org/2000/svg">
<g clip-path="url(#clip0_215_292)">
<rect width="1200" height="630" fill="#13111B"/>
<rect x="2" y="-1" width="1200" height="630" fill="#13111B"/>
<ellipse cx="998.026" cy="496.456" rx="242.456" ry="242.456" transform="rotate(-90 998.026 496.456)" fill="#F7F6F6"/>
<path fill-rule="evenodd" clip-rule="evenodd" d="M1228.38 417.907C1237.2 443.09 1242 470.165 1242 498.362C1242 632.685 1133.11 741.577 998.785 741.577C915.474 741.577 841.947 699.689 798.115 635.825C808.637 626.219 824.729 612.044 835.5 604.966C882.126 574.326 897.749 567.062 955.397 553.74C1013.04 540.418 1067.26 525.764 1058.31 501.604C1051.37 482.855 998.792 444.356 995.072 443.73C994.926 443.706 994.758 443.678 994.569 443.646C989.947 442.88 973.135 440.091 974.922 435.279C975.503 433.713 978.842 427.315 983.09 419.172C992.432 401.267 1006.17 374.928 1004.68 372.992C1004.58 372.157 1004.56 370.426 1005.3 370.175C1005.55 370.093 1005.94 369.966 1006.42 369.814C1007.76 369.389 1009.74 368.758 1010.88 368.297C1011.18 368.177 1011.74 367.877 1012.54 367.452C1015.87 365.672 1023.29 361.703 1032.57 359.621C1042.4 357.416 1049.01 356.09 1058.31 354.525C1067.61 352.96 1113.49 346.7 1141.39 352.021C1169.29 357.342 1190.41 368.96 1200.9 379.449C1208.56 387.107 1221 403.568 1228.38 417.907Z" fill="#13111B"/>
<path d="M867.056 400.497C854.952 407.007 849.662 415.728 848.53 419.275C851.927 416.459 858.102 415.833 858.719 415.833C889.903 414.581 970.257 437.384 974.193 437.114C983.378 437.74 985 436.801 1005.99 437.74C1026.99 438.679 1032.86 445.564 1045.21 447.129C1033.47 430.542 1036.87 427.725 1038.72 425.222C1040.58 422.718 1041.49 426.428 1042.42 425.802C1043.35 425.176 1046.2 426.831 1048.98 427.457C1051.76 428.083 1052.45 431.482 1055.54 432.421C1058.63 433.359 1068.05 432.733 1070.52 432.733C1072.99 432.733 1072.99 431.168 1072.69 429.603C1072.38 428.038 1067.13 424.596 1065.28 423.031C1063.42 421.466 1064.35 419.588 1062.5 419.588C1060.64 419.588 1059.72 418.649 1057.56 417.085C1055.4 415.52 1048.29 414.581 1047.06 414.581C1045.82 414.581 1046.75 411.451 1045.52 409.886C1044.28 408.322 1039.65 407.383 1037.8 406.444C1036.31 405.693 1025.86 398.411 1020.82 394.864C1021.64 395.907 1023.04 398.182 1022.05 398.933C1020.82 399.872 1005.99 392.36 1003.52 388.605C1001.05 384.849 1009.7 379.529 1007.54 371.705C972.958 372.957 882.184 392.36 867.056 400.497Z" fill="#19E7FF" stroke="#13111B" stroke-width="2"/>
<path d="M1095.85 412.794C1085.71 409.764 1086.27 397.855 1087.81 392.279C1087.81 391.543 1088.74 390.136 1090.97 388.369C1093.75 386.16 1104.07 381.318 1112.3 386.791C1116.38 389.509 1116.62 398.469 1115.32 403.325C1114.58 406.082 1108.52 416.581 1095.85 412.794Z" fill="#FFE319"/>
<path d="M985.734 382.156C985.491 381.656 985.633 381.324 985.734 381.219C986.646 380.283 987.861 381.844 989.379 382.156C990.898 382.468 993.936 382.156 995.455 382.78C996.974 383.404 999.404 386.836 998.796 387.46C998.189 388.085 992.721 386.836 990.898 385.9C989.076 384.964 989.987 384.652 988.772 383.716C987.557 382.78 986.038 382.78 985.734 382.156Z" fill="#13111B"/>
<path d="M1070.3 430.766C1068.35 428.933 1060.03 423.665 1055.58 422.199C1050.02 420.366 1039.21 413.339 1031.48 411.812C1023.76 410.284 1015.73 407.229 1008.93 406.924C1002.13 406.618 972.785 409.979 949.615 408.451C926.445 406.924 921.81 404.785 856.007 416.089" stroke="#13111B" stroke-width="2"/>
<path fill-rule="evenodd" clip-rule="evenodd" d="M1074.37 397.038C1074.27 397.142 1074.37 397.538 1075.61 398.288C1076.83 399.028 1077.28 401.711 1077.57 403.425C1077.65 403.884 1077.71 404.274 1077.78 404.538C1077.85 404.833 1077.89 405.163 1077.93 405.511C1078.06 406.638 1078.22 407.958 1079.64 408.912C1080.51 409.502 1081.39 409.257 1082.2 409.031C1083.11 408.778 1083.94 408.547 1084.59 409.537C1084.69 409.685 1084.8 409.864 1084.93 410.068C1086.41 412.451 1090.02 418.262 1099.15 417.974C1109.06 417.662 1121.14 410.787 1122.69 394.226C1120.21 382.039 1108.75 381.414 1103.49 382.039C1100.14 382.437 1094.4 385.618 1090.04 388.041C1087.54 389.425 1085.49 390.561 1084.59 390.789C1082.11 391.414 1075.61 393.288 1074.37 397.038ZM1076.54 397.351C1077.36 397.351 1079.39 397.789 1080.88 399.539C1081.4 400.157 1081.93 401.275 1082.56 402.631C1084.18 406.072 1086.52 411.046 1091.41 413.288C1098.22 416.412 1105.97 414.85 1110.92 411.1C1115.88 407.351 1118.05 400.788 1118.66 394.539C1116.19 388.602 1110.92 385.789 1108.75 385.477C1106.58 385.164 1098.22 384.227 1090.17 389.852C1084.48 393.824 1081.42 394.056 1079.78 394.179C1079.1 394.231 1078.67 394.263 1078.4 394.539C1078.16 394.773 1077.87 395.008 1077.58 395.242C1076.71 395.945 1075.84 396.648 1076.54 397.351Z" fill="#19E7FF"/>
<ellipse cx="1099.82" cy="397.685" rx="7.06116" ry="7.54242" fill="#13111B"/>
</g>
<defs>
<clipPath id="clip0_215_292">
<rect width="1200" height="630" fill="white"/>
</clipPath>
</defs>
</svg>
