<svg width="1200" height="630" viewBox="0 0 1200 630" fill="none" xmlns="http://www.w3.org/2000/svg">
<g clip-path="url(#clip0_214_195)">
<rect width="1200" height="630" fill="#13111B"/>
<rect x="2" y="-1" width="1200" height="630" fill="#13111B"/>
<ellipse cx="888.456" cy="253.456" rx="333.456" ry="333.456" transform="rotate(-90 888.456 253.456)" fill="#F7F6F6"/>
<path fill-rule="evenodd" clip-rule="evenodd" d="M1205.26 145.424C1217.4 180.059 1224 217.297 1224 256.077C1224 440.816 1074.24 590.577 889.5 590.577C774.921 590.577 673.797 532.967 613.513 445.134C627.985 431.923 650.117 412.427 664.93 402.692C729.056 360.552 750.543 350.562 829.827 332.24C909.111 313.918 983.68 293.764 971.371 260.536C961.819 234.75 889.51 181.802 884.394 180.941C884.193 180.907 883.961 180.868 883.702 180.825C877.346 179.771 854.223 175.935 856.681 169.318C857.48 167.165 862.072 158.364 867.915 147.165C880.763 122.54 899.662 86.3161 897.611 83.6529C897.469 82.505 897.44 80.123 898.463 79.7786C898.801 79.6651 899.346 79.4917 900.004 79.282C901.843 78.6969 904.568 77.8297 906.138 77.1958C906.548 77.03 907.32 76.6173 908.412 76.0335C912.992 73.585 923.2 68.1272 935.965 65.2633C949.481 62.2307 958.58 60.4072 971.371 58.2548C984.161 56.1024 1047.26 47.4929 1085.63 54.811C1124.01 62.1291 1153.05 78.1076 1167.48 92.5328C1178.01 103.065 1195.12 125.704 1205.26 145.424Z" fill="#13111B"/>
<path d="M708.329 121.482C691.683 130.435 684.408 142.429 682.851 147.307C687.522 143.434 696.015 142.573 696.864 142.573C739.752 140.851 850.265 172.213 855.678 171.842C868.31 172.703 870.541 171.411 899.416 172.703C928.291 173.994 936.359 183.463 953.345 185.615C937.209 162.803 941.88 158.929 944.428 155.486C946.975 152.042 948.24 157.145 949.514 156.284C950.788 155.423 954.715 157.699 958.537 158.56C962.358 159.421 963.313 164.095 967.559 165.386C971.806 166.678 984.768 165.816 988.165 165.816C991.562 165.816 991.562 163.664 991.138 161.512C990.713 159.359 983.494 154.625 980.946 152.473C978.399 150.32 979.673 147.738 977.125 147.738C974.577 147.738 973.303 146.447 970.331 144.294C967.358 142.142 957.591 140.851 955.893 140.851C954.194 140.851 955.468 136.547 953.77 134.395C952.071 132.242 945.702 130.951 943.154 129.66C941.115 128.627 926.734 118.612 919.799 113.734C920.931 115.169 922.856 118.297 921.497 119.33C919.799 120.621 899.416 110.291 896.019 105.126C892.622 99.9605 904.512 92.6432 901.539 81.8826C853.98 83.6043 729.136 110.291 708.329 121.482Z" fill="#19E7FF" stroke="#13111B" stroke-width="2"/>
<path d="M1022.99 138.393C1009.05 134.226 1009.81 117.847 1011.94 110.179C1011.94 109.166 1013.22 107.232 1016.28 104.801C1020.11 101.763 1034.31 95.1031 1045.61 102.631C1051.23 106.369 1051.57 118.691 1049.78 125.371C1048.76 129.162 1040.42 143.602 1022.99 138.393Z" fill="#FFE319"/>
<path d="M871.551 96.2558C871.217 95.5691 871.412 95.1114 871.551 94.9683C872.805 93.6808 874.476 95.8266 876.565 96.2558C878.653 96.685 882.831 96.2558 884.92 97.1141C887.009 97.9725 890.351 102.693 889.516 103.552C888.68 104.41 881.16 102.693 878.653 101.406C876.147 100.118 877.4 99.6892 875.729 98.4017C874.058 97.1141 871.969 97.1141 871.551 96.2558Z" fill="#13111B"/>
<path d="M987.86 163.111C985.169 160.59 973.731 153.345 967.612 151.328C959.964 148.807 945.093 139.143 934.471 137.042C923.849 134.942 912.801 130.74 903.454 130.32C894.106 129.899 853.742 134.521 821.875 132.421C790.008 130.32 783.635 127.378 693.134 142.925" stroke="#13111B" stroke-width="2"/>
<path fill-rule="evenodd" clip-rule="evenodd" d="M993.456 116.724C993.314 116.867 993.456 117.412 995.16 118.443C996.84 119.46 997.46 123.151 997.856 125.508C997.962 126.139 998.052 126.675 998.142 127.038C998.242 127.444 998.295 127.898 998.351 128.377C998.533 129.927 998.745 131.742 1000.7 133.055C1001.9 133.866 1003.11 133.529 1004.22 133.218C1005.47 132.869 1006.61 132.552 1007.51 133.914C1007.65 134.118 1007.8 134.364 1007.98 134.644C1010.01 137.922 1014.98 145.914 1027.54 145.518C1041.17 145.088 1057.78 135.633 1059.91 112.856C1056.5 96.0953 1040.74 95.2358 1033.5 96.0953C1028.89 96.6423 1021.01 101.018 1015 104.35C1011.57 106.253 1008.75 107.816 1007.51 108.129C1004.11 108.988 995.16 111.567 993.456 116.724ZM996.437 117.155C997.573 117.155 1000.36 117.756 1002.4 120.163C1003.12 121.013 1003.85 122.551 1004.72 124.416C1006.95 129.148 1010.16 135.99 1016.89 139.073C1026.26 143.37 1036.91 141.221 1043.72 136.064C1050.54 130.907 1053.52 121.882 1054.37 113.287C1050.97 105.121 1043.72 101.253 1040.74 100.824C1037.76 100.394 1026.26 99.1046 1015.18 106.84C1007.36 112.304 1003.15 112.622 1000.9 112.792C999.964 112.863 999.369 112.908 998.993 113.287C998.674 113.609 998.274 113.931 997.875 114.254C996.677 115.221 995.479 116.188 996.437 117.155Z" fill="#19E7FF"/>
<ellipse cx="1028.46" cy="117.614" rx="9.7114" ry="10.3733" fill="#13111B"/>
<path d="M58.1862 97.2093C58.1862 99.6838 59.1759 102.158 62.1453 103.148C71.7958 106.365 74.7652 108.097 74.7652 114.531V248.4C74.7652 271.907 67.8366 278.836 52 287.001L57.4438 302.591C105.696 289.229 131.678 278.093 131.678 241.224V107.355L149.247 101.168V87.064C149.247 84.837 148.504 84.342 145.783 84.342H58.1862V97.2093Z" fill="#FF008A"/>
<path d="M290.787 234.79L282.126 221.922C273.713 227.861 262.083 230.83 252.185 230.83C232.142 230.83 220.512 219.2 216.305 196.93C240.307 196.93 273.218 194.456 291.034 191.239C291.529 186.785 291.529 184.558 291.529 181.341C291.529 143.976 269.011 123.438 232.142 123.438C192.055 123.438 162.362 153.132 162.362 192.971C162.362 234.79 189.086 260.524 228.925 260.524C253.175 260.524 278.167 253.101 290.787 234.79ZM230.904 143.729C239.813 143.729 245.999 153.379 243.524 174.907L214.573 178.619C214.573 154.122 220.759 143.729 230.904 143.729Z" fill="#FF008A"/>
<path d="M387.291 256.318V241.966L370.217 236.274V150.905C381.105 151.4 391.003 152.142 398.179 152.885V126.408H370.217V106.117C370.217 92.5075 373.434 89.5381 377.146 89.5381C378.383 89.5381 379.868 89.7855 380.857 90.5279C383.085 98.4462 386.301 107.354 389.766 113.788C390.508 115.273 391.745 116.015 393.477 116.015H410.056L414.015 74.4438C405.85 71.227 392.488 69.4949 382.837 69H378.383C342.008 69 326.172 83.5993 319.738 102.9C317.511 110.076 316.521 118.242 316.274 126.408H303.406V149.173H316.274V228.603C316.274 233.8 314.789 236.274 308.603 239.244C306.128 240.481 305.386 241.471 305.386 244.193V257.555H384.817C386.796 257.555 387.291 257.308 387.291 256.318Z" fill="#FF008A"/>
<path d="M493.198 256.318V241.966L476.125 236.274V150.905C487.012 151.4 496.91 152.142 504.086 152.885V126.408H476.125V106.117C476.125 92.5075 479.341 89.5381 483.053 89.5381C484.29 89.5381 485.775 89.7855 486.765 90.5279C488.992 98.4462 492.209 107.354 495.673 113.788C496.415 115.273 497.652 116.015 499.385 116.015H515.964L519.923 74.4438C511.757 71.2271 498.395 69.4949 488.744 69H484.29C447.916 69 432.079 83.5994 425.645 102.9C423.418 110.076 422.428 118.242 422.181 126.408H409.314V149.173H422.181V228.604C422.181 233.8 420.696 236.274 414.51 239.244C412.036 240.481 411.293 241.471 411.293 244.193V257.555H490.724C492.704 257.555 493.198 257.308 493.198 256.318Z" fill="#FF008A"/>
<path d="M217.294 547.637L213.088 493.446H197.004C194.034 493.446 192.302 494.188 190.818 497.158C187.848 503.344 183.889 517.448 180.672 531.305C175.476 535.759 166.815 537.244 159.392 537.244C135.389 537.244 118.068 509.283 118.068 463.257C118.068 421.439 134.4 401.396 154.443 401.396C163.846 401.396 171.764 402.88 177.703 407.334C180.672 420.696 185.374 432.821 188.343 439.008C189.828 441.977 191.56 442.719 194.529 442.719H210.613L214.82 390.26C200.468 384.569 175.723 379.373 156.175 379.373C86.1473 379.373 59.6704 418.717 59.6704 468.454C59.6704 521.902 89.3641 558.525 157.165 558.525C178.445 558.525 202.942 553.576 217.294 547.637Z" fill="#FF008A"/>
<path d="M339.534 558.524C353.886 558.524 370.465 551.348 377.641 539.224L370.712 525.861C369.227 527.099 367.495 527.593 365.268 527.593C361.804 527.593 359.33 525.119 359.33 520.912V471.67C359.33 439.007 345.967 421.438 303.654 421.438C284.848 421.438 259.856 426.14 244.266 434.058L248.473 469.691H266.537C269.754 469.691 271.486 469.196 272.97 465.979C276.187 459.051 278.662 450.39 280.394 441.977C283.611 441.234 286.58 440.987 290.044 440.987C298.952 440.987 305.386 445.194 305.386 464.494V481.321H302.169C264.062 481.816 235.358 490.229 235.358 521.16C235.358 544.667 251.195 558.772 271.486 558.772C285.343 558.772 300.19 553.081 308.108 537.491C313.057 553.328 323.697 558.524 339.534 558.524ZM282.621 514.231C282.621 505.571 288.312 499.137 303.406 498.89H305.386V527.346C302.912 528.583 300.19 529.078 297.715 529.078C287.817 529.078 282.621 522.645 282.621 514.231Z" fill="#FF008A"/>
<path d="M462.268 554.318V539.718L450.638 534.274V396.941L451.38 367L385.807 378.383V391.745C385.807 394.467 386.797 395.456 389.024 396.199C395.952 398.426 396.695 399.663 396.695 404.365V526.356C396.695 531.553 395.21 534.275 389.024 537.244C386.549 538.481 385.807 539.471 385.807 542.193V555.555H459.794C461.773 555.555 462.268 555.308 462.268 554.318Z" fill="#FF008A"/>
<path d="M629.047 547.637V534.274C629.047 531.553 627.809 530.563 625.582 529.82C618.901 527.593 618.406 526.356 618.406 521.407V396.941L619.149 367L553.575 378.383V391.745C553.575 394.467 554.565 395.456 556.792 396.199C563.473 398.426 564.215 399.663 564.215 404.365V422.676C558.772 421.933 553.328 421.438 547.884 421.438C502.106 421.438 475.382 452.369 475.382 497.9C475.382 532.542 493.446 558.524 522.644 558.524C540.708 558.524 555.802 546.647 564.215 528.088L563.473 558.524L629.047 547.637ZM528.83 484.043C528.83 451.38 537.244 441.729 549.121 441.729C555.802 441.729 560.999 446.431 564.215 454.349V515.716C560.999 520.665 555.555 523.634 549.864 523.634C537.491 523.634 528.83 516.706 528.83 484.043Z" fill="#FF008A"/>
<path d="M799.539 437.77C799.539 439.997 799.786 441.234 802.755 442.719C811.416 446.926 813.643 448.163 812.901 451.875L801.518 507.798L772.072 424.408H742.626L718.376 508.787L701.302 445.688L713.674 440.244V425.645C713.674 424.655 713.179 424.408 711.2 424.408H636.471V437.77C636.471 439.997 637.213 441.729 639.687 443.214C645.626 446.925 647.606 448.905 649.338 454.596L680.269 555.555H722.582L743.121 494.683L765.143 555.555H807.457L838.388 447.42L852.492 440.244V425.645C852.492 424.655 851.997 424.408 850.018 424.408H799.539V437.77Z" fill="#FF008A"/>
<path d="M985.866 532.79L977.205 519.923C968.792 525.861 957.162 528.831 947.264 528.831C927.221 528.831 915.591 517.201 911.384 494.93C935.387 494.93 968.297 492.456 986.114 489.239C986.608 484.785 986.609 482.558 986.609 479.341C986.609 441.977 964.091 421.438 927.221 421.438C887.135 421.438 857.441 451.132 857.441 490.971C857.441 532.79 884.165 558.524 924.004 558.524C948.254 558.524 973.246 551.101 985.866 532.79ZM925.984 441.729C934.892 441.729 941.078 451.38 938.604 472.908L909.652 476.619C909.652 452.122 915.838 441.729 925.984 441.729Z" fill="#FF008A"/>
<path d="M1077.17 554.318V539.718L1065.54 534.274V396.941L1066.29 367L1000.71 378.383V391.745C1000.71 394.467 1001.7 395.456 1003.93 396.199C1010.86 398.426 1011.6 399.663 1011.6 404.365V526.356C1011.6 531.553 1010.12 534.275 1003.93 537.244C1001.46 538.481 1000.71 539.471 1000.71 542.193V555.555H1074.7C1076.68 555.555 1077.17 555.308 1077.17 554.318Z" fill="#FF008A"/>
<path d="M1164.28 554.318V539.718L1152.65 534.274V396.941L1153.39 367L1087.81 378.383V391.745C1087.81 394.467 1088.8 395.456 1091.03 396.199C1097.96 398.426 1098.7 399.663 1098.7 404.365V526.356C1098.7 531.553 1097.22 534.275 1091.03 537.244C1088.56 538.481 1087.81 539.471 1087.81 542.193V555.555H1161.8C1163.78 555.555 1164.28 555.308 1164.28 554.318Z" fill="#FF008A"/>
</g>
<defs>
<clipPath id="clip0_214_195">
<rect width="1200" height="630" fill="white"/>
</clipPath>
</defs>
</svg>
