<svg width="188" height="188" viewBox="0 0 188 188" fill="none" xmlns="http://www.w3.org/2000/svg">
<path d="M186.5 94C186.5 42.9137 145.086 1.50001 94 1.50001C42.9137 1.50001 1.49999 42.9137 1.5 94C1.5 145.086 42.9137 186.5 94 186.5C145.086 186.5 186.5 145.086 186.5 94Z" fill="#F7F6F6" stroke="#F7F6F6" stroke-width="3"/>
<path fill-rule="evenodd" clip-rule="evenodd" d="M180.457 64.5181C183.769 73.97 185.57 84.1323 185.57 94.7152C185.57 145.13 144.7 186 94.2848 186C63.0161 186 35.4194 170.278 18.9682 146.309C22.9174 142.703 28.9571 137.383 32.9998 134.726C50.4997 123.226 56.3634 120.5 78 115.5C99.6366 110.5 119.986 105 116.627 95.932C114.02 88.8951 94.2874 74.4455 92.8912 74.2105C92.8364 74.2013 92.7732 74.1908 92.7023 74.1791C90.9677 73.8913 84.6576 72.8445 85.3283 71.0387C85.5466 70.4511 86.7996 68.0494 88.3942 64.9931C91.9004 58.273 97.058 48.3875 96.4981 47.6608C96.4593 47.3475 96.4516 46.6975 96.7308 46.6035C96.8229 46.5725 96.9716 46.5252 97.1514 46.468C97.6532 46.3083 98.3969 46.0716 98.8252 45.8986C98.9372 45.8534 99.1479 45.7408 99.4458 45.5815C100.696 44.9133 103.482 43.4238 106.965 42.6423C110.653 41.8147 113.137 41.317 116.627 40.7297C120.118 40.1423 137.338 37.7927 147.81 39.7898C158.281 41.7869 166.208 46.1475 170.145 50.0841C173.02 52.9584 177.689 59.1364 180.457 64.5181Z" fill="#13111B"/>
<path d="M44.8434 57.9843C40.3008 60.4275 38.3153 63.7008 37.8904 65.0321C39.1651 63.9749 41.4828 63.74 41.7145 63.74C53.4187 63.2701 83.5776 71.8288 85.0549 71.7275C88.5021 71.9624 89.1108 71.61 96.9909 71.9624C104.871 72.3148 107.073 74.899 111.708 75.4863C107.305 69.2607 108.579 68.2036 109.275 67.2639C109.97 66.3242 110.315 67.7168 110.663 67.4819C111.01 67.2469 112.082 67.8679 113.125 68.1028C114.168 68.3378 114.428 69.6134 115.587 69.9658C116.746 70.3182 120.283 70.083 121.211 70.083C122.138 70.083 122.138 69.4957 122.022 68.9084C121.906 68.321 119.936 67.029 119.24 66.4416C118.545 65.8543 118.893 65.1495 118.198 65.1495C117.502 65.1495 117.155 64.7971 116.343 64.2098C115.532 63.6225 112.867 63.2701 112.403 63.2701C111.94 63.2701 112.287 62.0955 111.824 61.5082C111.36 60.9209 109.622 60.5685 108.927 60.2161C108.371 59.9342 104.446 57.2012 102.553 55.8699C102.862 56.2615 103.388 57.1151 103.017 57.397C102.553 57.7494 96.9909 54.9302 96.0638 53.5207C95.1368 52.1111 98.3815 50.1143 97.5703 47.1777C84.5914 47.6475 50.5217 54.9302 44.8434 57.9843Z" fill="#19E7FF" stroke="#13111B" stroke-width="2"/>
<path d="M130.715 62.5994C126.91 61.4622 127.119 56.9924 127.699 54.8997C127.699 54.6233 128.048 54.0955 128.883 53.4322C129.927 52.603 133.802 50.7856 136.888 52.8399C138.421 53.86 138.513 57.2228 138.024 59.0457C137.747 60.0804 135.472 64.0209 130.715 62.5994Z" fill="#FFE319"/>
<path d="M89.3865 51.1001C89.2953 50.9127 89.3485 50.7878 89.3865 50.7488C89.7286 50.3974 90.1846 50.983 90.7547 51.1001C91.3247 51.2172 92.4648 51.1001 93.0349 51.3344C93.6049 51.5686 94.517 52.8569 94.289 53.0912C94.061 53.3254 92.0088 52.8569 91.3247 52.5056C90.6407 52.1542 90.9827 52.0371 90.5266 51.6857C90.0706 51.3344 89.5006 51.3344 89.3865 51.1001Z" fill="#13111B"/>
<path d="M121.127 69.3449C120.393 68.6569 117.271 66.6798 115.602 66.1294C113.514 65.4414 109.456 62.8041 106.557 62.2308C103.659 61.6575 100.644 60.5108 98.0928 60.3962C95.5419 60.2815 84.5264 61.5428 75.83 60.9695C67.1336 60.3962 65.3943 59.5935 40.6965 63.8361" stroke="#13111B" stroke-width="2"/>
<path fill-rule="evenodd" clip-rule="evenodd" d="M122.654 56.6859C122.615 56.725 122.654 56.8735 123.119 57.155C123.578 57.4325 123.747 58.4397 123.855 59.083C123.884 59.2553 123.908 59.4015 123.933 59.5006C123.96 59.6114 123.975 59.7352 123.99 59.8659C124.04 60.2889 124.098 60.7842 124.631 61.1426C124.959 61.3638 125.288 61.2721 125.593 61.1871C125.934 61.0919 126.245 61.0053 126.491 61.3772C126.527 61.4326 126.569 61.4997 126.617 61.5762C127.172 62.4708 128.528 64.6518 131.955 64.5438C135.675 64.4265 140.209 61.8463 140.79 55.6303C139.86 51.0563 135.559 50.8218 133.582 51.0563C132.325 51.2056 130.172 52.3998 128.534 53.3089C127.598 53.8285 126.829 54.2549 126.491 54.3402C125.561 54.5748 123.119 55.2785 122.654 56.6859ZM123.468 56.8034C123.778 56.8034 124.537 56.9676 125.095 57.6244C125.293 57.8565 125.49 58.2761 125.729 58.7851C126.336 60.0765 127.214 61.9436 129.048 62.7848C131.606 63.9576 134.512 63.3712 136.372 61.9638C138.233 60.5565 139.046 58.0935 139.279 55.7479C138.349 53.5195 136.372 52.464 135.559 52.3467C134.745 52.2294 131.606 51.8776 128.583 53.9887C126.448 55.4798 125.299 55.5666 124.686 55.613C124.43 55.6323 124.268 55.6446 124.165 55.7479C124.078 55.8359 123.969 55.9238 123.86 56.0118C123.533 56.2757 123.206 56.5396 123.468 56.8034Z" fill="#19E7FF"/>
<ellipse cx="132.207" cy="56.9288" rx="2.65024" ry="2.83086" fill="#13111B"/>
</svg>
